<?xml version="1.0" encoding="UTF-8" standalone="no"?><!-- Generator: Gravit.io --><svg xmlns="http://www.w3.org/2000/svg" xmlns:xlink="http://www.w3.org/1999/xlink" style="isolation:isolate" viewBox="0 0 1196 666" width="1196pt" height="666pt"><defs><clipPath id="_clipPath_GpRj4vSKW341yOWKvcogRY4JaC7YQ5Vj"><rect x="0" y="0" width="1196" height="666"/></clipPath></defs><g clip-path="url(#_clipPath_GpRj4vSKW341yOWKvcogRY4JaC7YQ5Vj)"><g clip-path="url(#_clipPath_aClqcDnbToQ1UcBFtsBVifDHYHZuFTSH)"><text transform="matrix(1,0,0,1,0,21.377)" style="font-family:'Open Sans';font-weight:400;font-size:20px;font-style:normal;fill:#000000;stroke:none;">use</text></g><defs><clipPath id="_clipPath_aClqcDnbToQ1UcBFtsBVifDHYHZuFTSH"><rect x="0" y="0" width="36" height="27.236" transform="matrix(1,0,0,1,0,0)"/></clipPath></defs><g clip-path="url(#_clipPath_P7ZipfFJMWI8erOXwJpTJlptibi8YsxN)"><text transform="matrix(1,0,0,1,0,21.377)" style="font-family:'Open Sans';font-weight:400;font-size:20px;font-style:normal;fill:#000000;stroke:none;">use</text></g><defs><clipPath id="_clipPath_P7ZipfFJMWI8erOXwJpTJlptibi8YsxN"><rect x="0" y="0" width="36" height="27.236" transform="matrix(1,0,0,1,0,0)"/></clipPath></defs><mask id="_mask_od7BPWOLnOdcDrHniojxvN43yDf5K6Ma"><path d=" M 650.256 644.702 L 650.256 644.702 Q 616.978 666 573.052 666 L 573.052 666 L 573.052 666 Q 527.795 666 504.944 642.928 L 504.944 642.928 L 504.944 642.928 Q 482.095 619.856 482.095 578.148 L 482.095 578.148 L 482.095 471.218 L 432.844 471.218 L 432.844 422.855 L 482.095 422.855 L 482.095 371.83 L 552.198 363.4 L 552.198 422.855 L 628.071 422.855 L 620.972 471.218 L 552.198 471.218 L 552.198 578.148 L 552.198 578.148 Q 552.198 595.452 560.186 602.996 L 560.186 602.996 L 560.186 602.996 Q 568.172 610.538 585.919 610.538 L 585.919 610.538 L 585.919 610.538 Q 608.104 610.538 627.183 599.889 L 627.183 599.889 L 650.256 644.702 Z  M 735.444 386.472 L 908.929 493.846 L 908.929 544.428 L 735.888 651.802 L 704.386 603.882 L 848.143 519.137 L 704.386 437.053 L 735.444 386.472 Z  M 1029.614 467.668 L 1029.614 467.668 Q 1046.031 467.668 1058.232 474.546 L 1058.232 474.546 L 1058.232 474.546 Q 1070.435 481.423 1084.632 493.846 L 1084.632 493.846 L 1084.632 493.846 Q 1094.838 503.164 1102.159 507.601 L 1102.159 507.601 L 1102.159 507.601 Q 1109.479 512.038 1117.466 512.038 L 1117.466 512.038 L 1117.466 512.038 Q 1129.446 512.038 1138.541 503.83 L 1138.541 503.83 L 1138.541 503.83 Q 1147.637 495.621 1156.955 477.43 L 1156.955 477.43 L 1196 494.734 L 1196 494.734 Q 1180.47 528.898 1161.836 547.09 L 1161.836 547.09 L 1161.836 547.09 Q 1143.2 565.281 1115.691 565.281 L 1115.691 565.281 L 1115.691 565.281 Q 1099.718 565.281 1087.96 558.626 L 1087.96 558.626 L 1087.96 558.626 Q 1076.202 551.97 1061.116 539.103 L 1061.116 539.103 L 1061.116 539.103 Q 1050.024 529.785 1042.704 525.349 L 1042.704 525.349 L 1042.704 525.349 Q 1035.383 520.912 1027.839 520.912 L 1027.839 520.912 L 1027.839 520.912 Q 1015.86 520.912 1006.765 529.342 L 1006.765 529.342 L 1006.765 529.342 Q 997.668 537.772 988.351 555.52 L 988.351 555.52 L 949.306 537.772 L 949.306 537.772 Q 965.278 504.939 983.692 486.304 L 983.692 486.304 L 983.692 486.304 Q 1002.105 467.668 1029.614 467.668 L 1029.614 467.668 Z " fill="white" stroke="none"/></mask><path d=" M 650.256 644.702 L 650.256 644.702 Q 616.978 666 573.052 666 L 573.052 666 L 573.052 666 Q 527.795 666 504.944 642.928 L 504.944 642.928 L 504.944 642.928 Q 482.095 619.856 482.095 578.148 L 482.095 578.148 L 482.095 471.218 L 432.844 471.218 L 432.844 422.855 L 482.095 422.855 L 482.095 371.83 L 552.198 363.4 L 552.198 422.855 L 628.071 422.855 L 620.972 471.218 L 552.198 471.218 L 552.198 578.148 L 552.198 578.148 Q 552.198 595.452 560.186 602.996 L 560.186 602.996 L 560.186 602.996 Q 568.172 610.538 585.919 610.538 L 585.919 610.538 L 585.919 610.538 Q 608.104 610.538 627.183 599.889 L 627.183 599.889 L 650.256 644.702 Z  M 735.444 386.472 L 908.929 493.846 L 908.929 544.428 L 735.888 651.802 L 704.386 603.882 L 848.143 519.137 L 704.386 437.053 L 735.444 386.472 Z  M 1029.614 467.668 L 1029.614 467.668 Q 1046.031 467.668 1058.232 474.546 L 1058.232 474.546 L 1058.232 474.546 Q 1070.435 481.423 1084.632 493.846 L 1084.632 493.846 L 1084.632 493.846 Q 1094.838 503.164 1102.159 507.601 L 1102.159 507.601 L 1102.159 507.601 Q 1109.479 512.038 1117.466 512.038 L 1117.466 512.038 L 1117.466 512.038 Q 1129.446 512.038 1138.541 503.83 L 1138.541 503.83 L 1138.541 503.83 Q 1147.637 495.621 1156.955 477.43 L 1156.955 477.43 L 1196 494.734 L 1196 494.734 Q 1180.47 528.898 1161.836 547.09 L 1161.836 547.09 L 1161.836 547.09 Q 1143.2 565.281 1115.691 565.281 L 1115.691 565.281 L 1115.691 565.281 Q 1099.718 565.281 1087.96 558.626 L 1087.96 558.626 L 1087.96 558.626 Q 1076.202 551.97 1061.116 539.103 L 1061.116 539.103 L 1061.116 539.103 Q 1050.024 529.785 1042.704 525.349 L 1042.704 525.349 L 1042.704 525.349 Q 1035.383 520.912 1027.839 520.912 L 1027.839 520.912 L 1027.839 520.912 Q 1015.86 520.912 1006.765 529.342 L 1006.765 529.342 L 1006.765 529.342 Q 997.668 537.772 988.351 555.52 L 988.351 555.52 L 949.306 537.772 L 949.306 537.772 Q 965.278 504.939 983.692 486.304 L 983.692 486.304 L 983.692 486.304 Q 1002.105 467.668 1029.614 467.668 L 1029.614 467.668 Z " fill="rgb(255,255,255)"/><path d=" M 650.256 644.702 L 650.256 644.702 Q 616.978 666 573.052 666 L 573.052 666 L 573.052 666 Q 527.795 666 504.944 642.928 L 504.944 642.928 L 504.944 642.928 Q 482.095 619.856 482.095 578.148 L 482.095 578.148 L 482.095 471.218 L 432.844 471.218 L 432.844 422.855 L 482.095 422.855 L 482.095 371.83 L 552.198 363.4 L 552.198 422.855 L 628.071 422.855 L 620.972 471.218 L 552.198 471.218 L 552.198 578.148 L 552.198 578.148 Q 552.198 595.452 560.186 602.996 L 560.186 602.996 L 560.186 602.996 Q 568.172 610.538 585.919 610.538 L 585.919 610.538 L 585.919 610.538 Q 608.104 610.538 627.183 599.889 L 627.183 599.889 L 650.256 644.702 Z  M 735.444 386.472 L 908.929 493.846 L 908.929 544.428 L 735.888 651.802 L 704.386 603.882 L 848.143 519.137 L 704.386 437.053 L 735.444 386.472 Z  M 1029.614 467.668 L 1029.614 467.668 Q 1046.031 467.668 1058.232 474.546 L 1058.232 474.546 L 1058.232 474.546 Q 1070.435 481.423 1084.632 493.846 L 1084.632 493.846 L 1084.632 493.846 Q 1094.838 503.164 1102.159 507.601 L 1102.159 507.601 L 1102.159 507.601 Q 1109.479 512.038 1117.466 512.038 L 1117.466 512.038 L 1117.466 512.038 Q 1129.446 512.038 1138.541 503.83 L 1138.541 503.83 L 1138.541 503.83 Q 1147.637 495.621 1156.955 477.43 L 1156.955 477.43 L 1196 494.734 L 1196 494.734 Q 1180.47 528.898 1161.836 547.09 L 1161.836 547.09 L 1161.836 547.09 Q 1143.2 565.281 1115.691 565.281 L 1115.691 565.281 L 1115.691 565.281 Q 1099.718 565.281 1087.96 558.626 L 1087.96 558.626 L 1087.96 558.626 Q 1076.202 551.97 1061.116 539.103 L 1061.116 539.103 L 1061.116 539.103 Q 1050.024 529.785 1042.704 525.349 L 1042.704 525.349 L 1042.704 525.349 Q 1035.383 520.912 1027.839 520.912 L 1027.839 520.912 L 1027.839 520.912 Q 1015.86 520.912 1006.765 529.342 L 1006.765 529.342 L 1006.765 529.342 Q 997.668 537.772 988.351 555.52 L 988.351 555.52 L 949.306 537.772 L 949.306 537.772 Q 965.278 504.939 983.692 486.304 L 983.692 486.304 L 983.692 486.304 Q 1002.105 467.668 1029.614 467.668 L 1029.614 467.668 Z " fill="rgb(255,255,255)" mask="url(#_mask_od7BPWOLnOdcDrHniojxvN43yDf5K6Ma)" vector-effect="non-scaling-stroke" stroke-width="8" stroke="rgb(0,0,0)" stroke-linejoin="miter" stroke-linecap="square" stroke-miterlimit="3"/></g></svg>