<?xml version="1.0" encoding="UTF-8" standalone="no"?>
<!-- Generator: Gravit.io -->
<svg xmlns="http://www.w3.org/2000/svg" xmlns:xlink="http://www.w3.org/1999/xlink" style="isolation:isolate" viewBox="525.422 528.7 763.156 302.6" width="763.156pt" height="302.6pt">
    <defs>
        <clipPath id="_clipPath_goXWU2sbDV9NOG6el7dyMWFoMB4NMBap">
            <rect x="525.422" y="528.7" width="763.156" height="302.6" />
        </clipPath>
    </defs>
    <g clip-path="url(#_clipPath_goXWU2sbDV9NOG6el7dyMWFoMB4NMBap)">
        <path d=" M 742.834 810.002 L 742.834 810.002 Q 709.557 831.3 665.63 831.3 L 665.63 831.3 L 665.63 831.3 Q 620.373 831.3 597.522 808.228 L 597.522 808.228 L 597.522 808.228 Q 574.673 785.156 574.673 743.448 L 574.673 743.448 L 574.673 636.518 L 525.422 636.518 L 525.422 588.155 L 574.673 588.155 L 574.673 537.13 L 644.776 528.7 L 644.776 588.155 L 720.649 588.155 L 713.55 636.518 L 644.776 636.518 L 644.776 743.448 L 644.776 743.448 Q 644.776 760.752 652.764 768.296 L 652.764 768.296 L 652.764 768.296 Q 660.75 775.838 678.497 775.838 L 678.497 775.838 L 678.497 775.838 Q 700.682 775.838 719.761 765.189 L 719.761 765.189 L 742.834 810.002 Z  M 828.022 551.772 L 1001.507 659.146 L 1001.507 709.727 L 828.466 817.102 L 796.965 769.182 L 940.721 684.437 L 796.965 602.353 L 828.022 551.772 Z  M 1122.192 632.968 L 1122.192 632.968 Q 1138.609 632.968 1150.81 639.846 L 1150.81 639.846 L 1150.81 639.846 Q 1163.013 646.723 1177.21 659.146 L 1177.21 659.146 L 1177.21 659.146 Q 1187.416 668.464 1194.737 672.901 L 1194.737 672.901 L 1194.737 672.901 Q 1202.057 677.338 1210.044 677.338 L 1210.044 677.338 L 1210.044 677.338 Q 1222.024 677.338 1231.119 669.13 L 1231.119 669.13 L 1231.119 669.13 Q 1240.215 660.921 1249.533 642.73 L 1249.533 642.73 L 1288.578 660.034 L 1288.578 660.034 Q 1273.048 694.198 1254.414 712.39 L 1254.414 712.39 L 1254.414 712.39 Q 1235.778 730.581 1208.269 730.581 L 1208.269 730.581 L 1208.269 730.581 Q 1192.296 730.581 1180.538 723.926 L 1180.538 723.926 L 1180.538 723.926 Q 1168.78 717.27 1153.694 704.403 L 1153.694 704.403 L 1153.694 704.403 Q 1142.602 695.085 1135.282 690.649 L 1135.282 690.649 L 1135.282 690.649 Q 1127.961 686.212 1120.417 686.212 L 1120.417 686.212 L 1120.417 686.212 Q 1108.438 686.212 1099.343 694.642 L 1099.343 694.642 L 1099.343 694.642 Q 1090.246 703.072 1080.929 720.82 L 1080.929 720.82 L 1041.884 703.072 L 1041.884 703.072 Q 1057.856 670.239 1076.27 651.604 L 1076.27 651.604 L 1076.27 651.604 Q 1094.683 632.968 1122.192 632.968 L 1122.192 632.968 Z " fill="rgb(251,251,248)" />
    </g>
</svg>